<svg xmlns="http://www.w3.org/2000/svg" xmlns:xlink="http://www.w3.org/1999/xlink" width="2000" zoomAndPan="magnify" viewBox="0 0 1500 1499.999933" height="2000" preserveAspectRatio="xMidYMid meet" version="1.0"><path fill="#1b2b4b" d="M 800.070312 791.851562 C 831.761719 821.75 856.574219 856.726562 874.511719 896.785156 C 892.449219 936.847656 901.117188 980.195312 901.117188 1026.53125 C 901.117188 1074.960938 891.550781 1119.804688 872.417969 1161.0625 C 853.285156 1202.316406 826.976562 1237.890625 793.195312 1267.789062 C 764.496094 1293.199219 731.910156 1313.230469 695.4375 1327.878906 C 658.964844 1342.527344 619.800781 1349.699219 578.546875 1349.699219 C 594.390625 1349.699219 609.339844 1346.710938 622.792969 1340.730469 C 636.542969 1334.753906 648.5 1326.382812 658.667969 1315.917969 C 668.832031 1305.457031 676.902344 1293.496094 682.882812 1279.746094 C 688.859375 1265.992188 691.851562 1251.34375 691.851562 1235.5 C 691.851562 1219.058594 688.5625 1203.511719 681.984375 1189.164062 C 675.40625 1174.8125 666.4375 1162.554688 655.675781 1152.390625 C 653.882812 1150.597656 650.894531 1148.207031 647.007812 1145.816406 L 304.40625 856.726562 L 194.691406 765.246094 L 198.578125 760.464844 L 197.679688 760.464844 L 194.691406 765.246094 L 161.207031 736.546875 C 156.125 732.660156 151.34375 728.773438 146.558594 724.589844 C 141.773438 720.402344 136.992188 716.21875 131.910156 711.734375 C 100.222656 681.839844 75.109375 646.859375 57.171875 606.800781 C 38.636719 566.742188 29.667969 523.394531 29.667969 477.054688 C 29.667969 429.523438 39.234375 384.976562 58.667969 343.421875 C 78.097656 302.167969 104.703125 266.59375 138.488281 236.695312 C 167.1875 210.6875 199.472656 190.359375 235.648438 176.007812 C 271.820312 161.957031 310.984375 154.785156 352.835938 154.785156 C 336.992188 154.785156 322.042969 157.773438 308.589844 163.75 C 294.839844 169.730469 282.882812 177.800781 272.71875 187.96875 C 262.550781 198.132812 254.480469 210.089844 248.5 223.839844 C 242.523438 237.59375 239.53125 252.242188 239.53125 268.085938 C 239.53125 284.527344 242.820312 300.074219 249.398438 314.425781 C 255.976562 328.773438 264.945312 341.332031 275.707031 352.09375 C 279.59375 354.785156 282.285156 356.875 284.375 358.667969 L 431.164062 481.539062 L 770.773438 766.742188 C 775.855469 771.226562 780.640625 775.410156 785.421875 779 C 790.207031 783.183594 794.988281 787.367188 800.070312 791.851562 Z M 218.605469 980.492188 C 244.015625 980.492188 267.933594 985.277344 290.652344 995.140625 C 313.074219 1005.007812 332.808594 1018.160156 349.25 1034.605469 C 365.691406 1051.046875 378.84375 1070.777344 388.710938 1093.199219 C 398.578125 1115.917969 403.359375 1139.835938 403.359375 1165.246094 C 403.359375 1190.65625 398.578125 1214.574219 388.710938 1237.292969 C 378.84375 1260.015625 365.691406 1279.445312 349.25 1295.890625 C 332.808594 1312.332031 313.074219 1325.484375 290.652344 1335.351562 C 267.933594 1345.214844 244.015625 1350 218.605469 1350 C 192.597656 1350 168.082031 1345.214844 145.660156 1335.351562 C 122.941406 1325.484375 103.507812 1312.332031 87.066406 1295.890625 C 70.625 1279.445312 57.46875 1259.714844 47.605469 1237.292969 C 37.441406 1214.871094 32.65625 1190.957031 32.65625 1165.546875 C 32.65625 1140.132812 37.441406 1116.21875 47.304688 1093.496094 C 57.171875 1071.074219 70.324219 1051.34375 86.769531 1034.902344 C 103.210938 1018.460938 122.941406 1005.304688 145.363281 995.441406 C 168.082031 985.574219 192.296875 980.492188 218.605469 980.492188 Z M 837.441406 456.128906 L 473.914062 152.988281 L 837.140625 152.988281 L 837.140625 456.128906 Z M 837.441406 456.128906 " fill-opacity="1" fill-rule="nonzero"/><path fill="#1b2b4b" d="M 1063.75 699.179688 L 1261.355469 699.179688 L 1261.355469 797.535156 L 1063.75 797.535156 Z M 1063.75 699.179688 " fill-opacity="1" fill-rule="nonzero"/><path fill="#1b2b4b" d="M 1120.550781 150 L 1470.324219 441.777344 L 1470.324219 150 Z M 1120.550781 150 " fill-opacity="1" fill-rule="nonzero"/><path fill="#1b2b4b" d="M 1470.324219 1346.710938 L 1470.324219 1054.933594 L 1120.550781 1346.710938 Z M 1470.324219 1346.710938 " fill-opacity="1" fill-rule="nonzero"/></svg>