<svg xmlns="http://www.w3.org/2000/svg" xmlns:xlink="http://www.w3.org/1999/xlink" zoomAndPan="magnify" preserveAspectRatio="xMidYMid meet" version="1.0" viewBox="273.8 345.3 954.08 786.85"><defs><g/><clipPath id="7548d4522f"><path d="M 440.125 346 L 815 346 L 815 861 L 440.125 861 Z M 440.125 346 " clip-rule="nonzero"/></clipPath><clipPath id="254930bd08"><path d="M 909 345.296875 L 1059.625 345.296875 L 1059.625 471 L 909 471 Z M 909 345.296875 " clip-rule="nonzero"/></clipPath><clipPath id="53e421a2a2"><path d="M 909 734 L 1059.625 734 L 1059.625 860 L 909 860 Z M 909 734 " clip-rule="nonzero"/></clipPath><clipPath id="404a74c6ee"><rect x="0" width="548" y="0" height="168"/></clipPath><clipPath id="a1687f8f3a"><rect x="0" width="1005" y="0" height="126"/></clipPath></defs><g clip-path="url(#7548d4522f)"><path fill="#1b2b4b" d="M 771.515625 621.117188 C 785.136719 633.964844 795.796875 648.996094 803.503906 666.210938 C 811.214844 683.425781 814.941406 702.050781 814.941406 721.964844 C 814.941406 742.777344 810.828125 762.046875 802.605469 779.777344 C 794.382812 797.503906 783.078125 812.792969 768.5625 825.640625 C 756.230469 836.558594 742.226562 845.167969 726.554688 851.460938 C 710.878906 857.757812 694.050781 860.839844 676.320312 860.839844 C 683.132812 860.839844 689.554688 859.554688 695.335938 856.984375 C 701.246094 854.417969 706.382812 850.820312 710.75 846.324219 C 715.121094 841.824219 718.589844 836.6875 721.15625 830.777344 C 723.726562 824.867188 725.011719 818.574219 725.011719 811.765625 C 725.011719 804.699219 723.597656 798.019531 720.773438 791.851562 C 717.945312 785.683594 714.09375 780.417969 709.46875 776.050781 C 708.695312 775.28125 707.410156 774.25 705.742188 773.222656 L 558.515625 648.996094 L 511.367188 609.683594 L 513.039062 607.628906 L 512.652344 607.628906 L 511.367188 609.683594 L 496.980469 597.351562 C 494.796875 595.679688 492.742188 594.011719 490.683594 592.210938 C 488.628906 590.414062 486.574219 588.613281 484.390625 586.6875 C 470.773438 573.839844 459.980469 558.808594 452.273438 541.59375 C 444.308594 524.382812 440.453125 505.753906 440.453125 485.839844 C 440.453125 465.414062 444.566406 446.273438 452.914062 428.414062 C 461.265625 410.6875 472.699219 395.398438 487.21875 382.550781 C 499.550781 371.375 513.425781 362.640625 528.96875 356.472656 C 544.511719 350.433594 561.34375 347.351562 579.328125 347.351562 C 572.519531 347.351562 566.097656 348.636719 560.316406 351.207031 C 554.40625 353.773438 549.265625 357.242188 544.898438 361.613281 C 540.53125 365.980469 537.0625 371.117188 534.492188 377.027344 C 531.921875 382.9375 530.640625 389.230469 530.640625 396.042969 C 530.640625 403.105469 532.050781 409.789062 534.878906 415.953125 C 537.703125 422.121094 541.558594 427.515625 546.183594 432.140625 C 547.855469 433.296875 549.011719 434.195312 549.910156 434.96875 L 612.988281 487.765625 L 758.925781 610.328125 C 761.109375 612.253906 763.167969 614.050781 765.222656 615.59375 C 767.277344 617.390625 769.332031 619.191406 771.515625 621.117188 Z M 521.644531 702.179688 C 532.566406 702.179688 542.84375 704.238281 552.605469 708.476562 C 562.242188 712.714844 570.722656 718.367188 577.785156 725.433594 C 584.851562 732.5 590.503906 740.976562 594.746094 750.613281 C 598.984375 760.378906 601.039062 770.65625 601.039062 781.574219 C 601.039062 792.496094 598.984375 802.773438 594.746094 812.535156 C 590.503906 822.300781 584.851562 830.648438 577.785156 837.714844 C 570.722656 844.78125 562.242188 850.433594 552.605469 854.671875 C 542.84375 858.914062 532.566406 860.96875 521.644531 860.96875 C 510.46875 860.96875 499.933594 858.914062 490.300781 854.671875 C 480.535156 850.433594 472.1875 844.78125 465.121094 837.714844 C 458.054688 830.648438 452.402344 822.171875 448.164062 812.535156 C 443.792969 802.898438 441.738281 792.621094 441.738281 781.703125 C 441.738281 770.78125 443.792969 760.503906 448.035156 750.742188 C 452.273438 741.105469 457.925781 732.628906 464.992188 725.5625 C 472.058594 718.496094 480.535156 712.84375 490.171875 708.605469 C 499.933594 704.363281 510.339844 702.179688 521.644531 702.179688 Z M 787.574219 476.847656 L 631.359375 346.582031 L 787.449219 346.582031 L 787.449219 476.847656 Z M 787.574219 476.847656 " fill-opacity="1" fill-rule="nonzero"/></g><path fill="#1b2b4b" d="M 884.828125 581.292969 L 969.742188 581.292969 L 969.742188 623.558594 L 884.828125 623.558594 Z M 884.828125 581.292969 " fill-opacity="1" fill-rule="nonzero"/><g clip-path="url(#254930bd08)"><path fill="#1b2b4b" d="M 909.234375 345.296875 L 1059.542969 470.679688 L 1059.542969 345.296875 Z M 909.234375 345.296875 " fill-opacity="1" fill-rule="nonzero"/></g><g clip-path="url(#53e421a2a2)"><path fill="#1b2b4b" d="M 1059.542969 859.554688 L 1059.542969 734.167969 L 909.234375 859.554688 Z M 1059.542969 859.554688 " fill-opacity="1" fill-rule="nonzero"/></g><g transform="matrix(1, 0, 0, 1, 487, 883)"><g clip-path="url(#404a74c6ee)"><g fill="#1b2b4b" fill-opacity="1"><g transform="translate(0.915712, 132.446956)"><g><path d="M 42.796875 1.640625 C 35.234375 1.640625 27.914062 0.613281 20.84375 -1.4375 C 13.78125 -3.488281 8.109375 -6.15625 3.828125 -9.4375 L 11.34375 -26.109375 C 15.445312 -23.109375 20.320312 -20.695312 25.96875 -18.875 C 31.625 -17.050781 37.28125 -16.140625 42.9375 -16.140625 C 49.21875 -16.140625 53.863281 -17.070312 56.875 -18.9375 C 59.882812 -20.800781 61.390625 -23.285156 61.390625 -26.390625 C 61.390625 -28.671875 60.5 -30.5625 58.71875 -32.0625 C 56.945312 -33.5625 54.671875 -34.765625 51.890625 -35.671875 C 49.109375 -36.585938 45.347656 -37.59375 40.609375 -38.6875 C 33.316406 -40.425781 27.34375 -42.160156 22.6875 -43.890625 C 18.039062 -45.617188 14.054688 -48.394531 10.734375 -52.21875 C 7.410156 -56.050781 5.75 -61.160156 5.75 -67.546875 C 5.75 -73.097656 7.25 -78.128906 10.25 -82.640625 C 13.257812 -87.160156 17.796875 -90.738281 23.859375 -93.375 C 29.921875 -96.019531 37.328125 -97.34375 46.078125 -97.34375 C 52.179688 -97.34375 58.148438 -96.613281 63.984375 -95.15625 C 69.816406 -93.695312 74.921875 -91.601562 79.296875 -88.875 L 72.46875 -72.046875 C 63.625 -77.066406 54.78125 -79.578125 45.9375 -79.578125 C 39.738281 -79.578125 35.15625 -78.570312 32.1875 -76.5625 C 29.226562 -74.5625 27.75 -71.921875 27.75 -68.640625 C 27.75 -65.359375 29.457031 -62.914062 32.875 -61.3125 C 36.300781 -59.71875 41.519531 -58.148438 48.53125 -56.609375 C 55.820312 -54.867188 61.789062 -53.132812 66.4375 -51.40625 C 71.09375 -49.675781 75.082031 -46.941406 78.40625 -43.203125 C 81.738281 -39.460938 83.40625 -34.40625 83.40625 -28.03125 C 83.40625 -22.5625 81.875 -17.570312 78.8125 -13.0625 C 75.757812 -8.550781 71.179688 -4.972656 65.078125 -2.328125 C 58.972656 0.316406 51.546875 1.640625 42.796875 1.640625 Z M 42.796875 1.640625 "/></g></g></g><g fill="#1b2b4b" fill-opacity="1"><g transform="translate(109.467094, 132.446956)"><g><path d="M 99.125 -95.703125 L 99.125 0 L 76.96875 0 L 76.96875 -39.234375 L 33.5 -39.234375 L 33.5 0 L 11.34375 0 L 11.34375 -95.703125 L 33.5 -95.703125 L 33.5 -57.96875 L 76.96875 -57.96875 L 76.96875 -95.703125 Z M 99.125 -95.703125 "/></g></g></g><g fill="#1b2b4b" fill-opacity="1"><g transform="translate(241.25965, 132.446956)"><g><path d="M 85.453125 -17.78125 L 85.453125 0 L 11.34375 0 L 11.34375 -95.703125 L 83.671875 -95.703125 L 83.671875 -77.9375 L 33.359375 -77.9375 L 33.359375 -57.15625 L 77.796875 -57.15625 L 77.796875 -39.921875 L 33.359375 -39.921875 L 33.359375 -17.78125 Z M 85.453125 -17.78125 "/></g></g></g><g fill="#1b2b4b" fill-opacity="1"><g transform="translate(354.322537, 132.446956)"><g><path d="M 81.625 -49.765625 C 87.09375 -48.035156 91.375 -45.140625 94.46875 -41.078125 C 97.570312 -37.023438 99.125 -32.035156 99.125 -26.109375 C 99.125 -17.722656 95.863281 -11.273438 89.34375 -6.765625 C 82.832031 -2.253906 73.332031 0 60.84375 0 L 11.34375 0 L 11.34375 -95.703125 L 58.109375 -95.703125 C 69.773438 -95.703125 78.726562 -93.46875 84.96875 -89 C 91.21875 -84.539062 94.34375 -78.484375 94.34375 -70.828125 C 94.34375 -66.171875 93.222656 -62.019531 90.984375 -58.375 C 88.753906 -54.726562 85.632812 -51.859375 81.625 -49.765625 Z M 33.359375 -79.03125 L 33.359375 -56.46875 L 55.375 -56.46875 C 60.84375 -56.46875 64.988281 -57.421875 67.8125 -59.328125 C 70.632812 -61.242188 72.046875 -64.070312 72.046875 -67.8125 C 72.046875 -71.550781 70.632812 -74.351562 67.8125 -76.21875 C 64.988281 -78.09375 60.84375 -79.03125 55.375 -79.03125 Z M 59.203125 -16.6875 C 65.035156 -16.6875 69.429688 -17.640625 72.390625 -19.546875 C 75.359375 -21.460938 76.84375 -24.425781 76.84375 -28.4375 C 76.84375 -36.363281 70.960938 -40.328125 59.203125 -40.328125 L 33.359375 -40.328125 L 33.359375 -16.6875 Z M 59.203125 -16.6875 "/></g></g></g><g fill="#1b2b4b" fill-opacity="1"><g transform="translate(480.236428, 132.446956)"><g><path d="M 11.34375 -95.703125 L 33.5 -95.703125 L 33.5 0 L 11.34375 0 Z M 11.34375 -95.703125 "/></g></g></g></g></g><g transform="matrix(1, 0, 0, 1, 267, 1038)"><g clip-path="url(#a1687f8f3a)"><g fill="#1b2b4b" fill-opacity="1"><g transform="translate(1.254431, 93.526331)"><g><path d="M 20.859375 -50.59375 L 20.859375 -37.875 L 41.375 -37.875 L 41.375 -26.0625 L 20.859375 -26.0625 L 20.859375 -12.265625 L 44.0625 -12.265625 L 44.0625 0 L 5.546875 0 L 5.546875 -62.859375 L 44.0625 -62.859375 L 44.0625 -50.59375 Z M 20.859375 -50.59375 "/></g></g></g><g fill="#1b2b4b" fill-opacity="1"><g transform="translate(88.566693, 93.526331)"><g><path d="M 61.78125 0 L 46.46875 0 L 20.859375 -38.78125 L 20.859375 0 L 5.546875 0 L 5.546875 -62.859375 L 20.859375 -62.859375 L 46.46875 -23.90625 L 46.46875 -62.859375 L 61.78125 -62.859375 Z M 61.78125 0 "/></g></g></g><g fill="#1b2b4b" fill-opacity="1"><g transform="translate(194.773382, 93.526331)"><g><path d="M 50.765625 -62.859375 L 50.765625 -50.59375 L 34.125 -50.59375 L 34.125 0 L 18.8125 0 L 18.8125 -50.59375 L 2.15625 -50.59375 L 2.15625 -62.859375 Z M 50.765625 -62.859375 "/></g></g></g><g fill="#1b2b4b" fill-opacity="1"><g transform="translate(286.563001, 93.526331)"><g><path d="M 20.859375 -50.59375 L 20.859375 -37.875 L 41.375 -37.875 L 41.375 -26.0625 L 20.859375 -26.0625 L 20.859375 -12.265625 L 44.0625 -12.265625 L 44.0625 0 L 5.546875 0 L 5.546875 -62.859375 L 44.0625 -62.859375 L 44.0625 -50.59375 Z M 20.859375 -50.59375 "/></g></g></g><g fill="#1b2b4b" fill-opacity="1"><g transform="translate(373.875248, 93.526331)"><g><path d="M 37.609375 0 L 24.53125 -23.734375 L 20.859375 -23.734375 L 20.859375 0 L 5.546875 0 L 5.546875 -62.859375 L 31.25 -62.859375 C 36.207031 -62.859375 40.429688 -61.992188 43.921875 -60.265625 C 47.410156 -58.535156 50.019531 -56.160156 51.75 -53.140625 C 53.488281 -50.128906 54.359375 -46.773438 54.359375 -43.078125 C 54.359375 -38.890625 53.175781 -35.15625 50.8125 -31.875 C 48.457031 -28.59375 44.984375 -26.265625 40.390625 -24.890625 L 54.890625 0 Z M 20.859375 -34.5625 L 30.359375 -34.5625 C 33.160156 -34.5625 35.265625 -35.25 36.671875 -36.625 C 38.078125 -38 38.78125 -39.9375 38.78125 -42.4375 C 38.78125 -44.832031 38.078125 -46.710938 36.671875 -48.078125 C 35.265625 -49.453125 33.160156 -50.140625 30.359375 -50.140625 L 20.859375 -50.140625 Z M 20.859375 -34.5625 "/></g></g></g><g fill="#1b2b4b" fill-opacity="1"><g transform="translate(471.12724, 93.526331)"><g><path d="M 53.453125 -42.625 C 53.453125 -38.976562 52.613281 -35.648438 50.9375 -32.640625 C 49.269531 -29.628906 46.707031 -27.195312 43.25 -25.34375 C 39.789062 -23.488281 35.492188 -22.5625 30.359375 -22.5625 L 20.859375 -22.5625 L 20.859375 0 L 5.546875 0 L 5.546875 -62.859375 L 30.359375 -62.859375 C 35.367188 -62.859375 39.601562 -61.992188 43.0625 -60.265625 C 46.53125 -58.535156 49.128906 -56.144531 50.859375 -53.09375 C 52.585938 -50.050781 53.453125 -46.5625 53.453125 -42.625 Z M 29.1875 -34.75 C 32.113281 -34.75 34.289062 -35.429688 35.71875 -36.796875 C 37.15625 -38.171875 37.875 -40.113281 37.875 -42.625 C 37.875 -45.132812 37.15625 -47.070312 35.71875 -48.4375 C 34.289062 -49.8125 32.113281 -50.5 29.1875 -50.5 L 20.859375 -50.5 L 20.859375 -34.75 Z M 29.1875 -34.75 "/></g></g></g><g fill="#1b2b4b" fill-opacity="1"><g transform="translate(565.871901, 93.526331)"><g><path d="M 37.609375 0 L 24.53125 -23.734375 L 20.859375 -23.734375 L 20.859375 0 L 5.546875 0 L 5.546875 -62.859375 L 31.25 -62.859375 C 36.207031 -62.859375 40.429688 -61.992188 43.921875 -60.265625 C 47.410156 -58.535156 50.019531 -56.160156 51.75 -53.140625 C 53.488281 -50.128906 54.359375 -46.773438 54.359375 -43.078125 C 54.359375 -38.890625 53.175781 -35.15625 50.8125 -31.875 C 48.457031 -28.59375 44.984375 -26.265625 40.390625 -24.890625 L 54.890625 0 Z M 20.859375 -34.5625 L 30.359375 -34.5625 C 33.160156 -34.5625 35.265625 -35.25 36.671875 -36.625 C 38.078125 -38 38.78125 -39.9375 38.78125 -42.4375 C 38.78125 -44.832031 38.078125 -46.710938 36.671875 -48.078125 C 35.265625 -49.453125 33.160156 -50.140625 30.359375 -50.140625 L 20.859375 -50.140625 Z M 20.859375 -34.5625 "/></g></g></g><g fill="#1b2b4b" fill-opacity="1"><g transform="translate(663.123922, 93.526331)"><g><path d="M 20.859375 -62.859375 L 20.859375 0 L 5.546875 0 L 5.546875 -62.859375 Z M 20.859375 -62.859375 "/></g></g></g><g fill="#1b2b4b" fill-opacity="1"><g transform="translate(728.407593, 93.526331)"><g><path d="M 28.296875 0.625 C 23.703125 0.625 19.582031 -0.117188 15.9375 -1.609375 C 12.300781 -3.097656 9.390625 -5.304688 7.203125 -8.234375 C 5.023438 -11.160156 3.878906 -14.6875 3.765625 -18.8125 L 20.0625 -18.8125 C 20.300781 -16.476562 21.101562 -14.695312 22.46875 -13.46875 C 23.84375 -12.25 25.632812 -11.640625 27.84375 -11.640625 C 30.113281 -11.640625 31.90625 -12.160156 33.21875 -13.203125 C 34.53125 -14.253906 35.1875 -15.703125 35.1875 -17.546875 C 35.1875 -19.097656 34.664062 -20.378906 33.625 -21.390625 C 32.582031 -22.410156 31.296875 -23.25 29.765625 -23.90625 C 28.242188 -24.5625 26.082031 -25.304688 23.28125 -26.140625 C 19.21875 -27.398438 15.898438 -28.65625 13.328125 -29.90625 C 10.765625 -31.164062 8.554688 -33.015625 6.703125 -35.453125 C 4.859375 -37.898438 3.9375 -41.097656 3.9375 -45.046875 C 3.9375 -50.890625 6.054688 -55.46875 10.296875 -58.78125 C 14.535156 -62.09375 20.054688 -63.75 26.859375 -63.75 C 33.785156 -63.75 39.367188 -62.09375 43.609375 -58.78125 C 47.847656 -55.46875 50.117188 -50.859375 50.421875 -44.953125 L 33.84375 -44.953125 C 33.726562 -46.984375 32.984375 -48.578125 31.609375 -49.734375 C 30.234375 -50.898438 28.472656 -51.484375 26.328125 -51.484375 C 24.472656 -51.484375 22.976562 -50.988281 21.84375 -50 C 20.707031 -49.019531 20.140625 -47.609375 20.140625 -45.765625 C 20.140625 -43.734375 21.09375 -42.148438 23 -41.015625 C 24.914062 -39.878906 27.90625 -38.65625 31.96875 -37.34375 C 36.03125 -35.96875 39.328125 -34.648438 41.859375 -33.390625 C 44.398438 -32.140625 46.59375 -30.320312 48.4375 -27.9375 C 50.289062 -25.550781 51.21875 -22.476562 51.21875 -18.71875 C 51.21875 -15.132812 50.304688 -11.878906 48.484375 -8.953125 C 46.671875 -6.023438 44.03125 -3.695312 40.5625 -1.96875 C 37.101562 -0.238281 33.015625 0.625 28.296875 0.625 Z M 28.296875 0.625 "/></g></g></g><g fill="#1b2b4b" fill-opacity="1"><g transform="translate(822.346386, 93.526331)"><g><path d="M 20.859375 -50.59375 L 20.859375 -37.875 L 41.375 -37.875 L 41.375 -26.0625 L 20.859375 -26.0625 L 20.859375 -12.265625 L 44.0625 -12.265625 L 44.0625 0 L 5.546875 0 L 5.546875 -62.859375 L 44.0625 -62.859375 L 44.0625 -50.59375 Z M 20.859375 -50.59375 "/></g></g></g><g fill="#1b2b4b" fill-opacity="1"><g transform="translate(909.658605, 93.526331)"><g><path d="M 28.296875 0.625 C 23.703125 0.625 19.582031 -0.117188 15.9375 -1.609375 C 12.300781 -3.097656 9.390625 -5.304688 7.203125 -8.234375 C 5.023438 -11.160156 3.878906 -14.6875 3.765625 -18.8125 L 20.0625 -18.8125 C 20.300781 -16.476562 21.101562 -14.695312 22.46875 -13.46875 C 23.84375 -12.25 25.632812 -11.640625 27.84375 -11.640625 C 30.113281 -11.640625 31.90625 -12.160156 33.21875 -13.203125 C 34.53125 -14.253906 35.1875 -15.703125 35.1875 -17.546875 C 35.1875 -19.097656 34.664062 -20.378906 33.625 -21.390625 C 32.582031 -22.410156 31.296875 -23.25 29.765625 -23.90625 C 28.242188 -24.5625 26.082031 -25.304688 23.28125 -26.140625 C 19.21875 -27.398438 15.898438 -28.65625 13.328125 -29.90625 C 10.765625 -31.164062 8.554688 -33.015625 6.703125 -35.453125 C 4.859375 -37.898438 3.9375 -41.097656 3.9375 -45.046875 C 3.9375 -50.890625 6.054688 -55.46875 10.296875 -58.78125 C 14.535156 -62.09375 20.054688 -63.75 26.859375 -63.75 C 33.785156 -63.75 39.367188 -62.09375 43.609375 -58.78125 C 47.847656 -55.46875 50.117188 -50.859375 50.421875 -44.953125 L 33.84375 -44.953125 C 33.726562 -46.984375 32.984375 -48.578125 31.609375 -49.734375 C 30.234375 -50.898438 28.472656 -51.484375 26.328125 -51.484375 C 24.472656 -51.484375 22.976562 -50.988281 21.84375 -50 C 20.707031 -49.019531 20.140625 -47.609375 20.140625 -45.765625 C 20.140625 -43.734375 21.09375 -42.148438 23 -41.015625 C 24.914062 -39.878906 27.90625 -38.65625 31.96875 -37.34375 C 36.03125 -35.96875 39.328125 -34.648438 41.859375 -33.390625 C 44.398438 -32.140625 46.59375 -30.320312 48.4375 -27.9375 C 50.289062 -25.550781 51.21875 -22.476562 51.21875 -18.71875 C 51.21875 -15.132812 50.304688 -11.878906 48.484375 -8.953125 C 46.671875 -6.023438 44.03125 -3.695312 40.5625 -1.96875 C 37.101562 -0.238281 33.015625 0.625 28.296875 0.625 Z M 28.296875 0.625 "/></g></g></g></g></g></svg>